<svg width="515" height="69" viewBox="0 0 515 69" fill="none" xmlns="http://www.w3.org/2000/svg">
<g clip-path="url(#clip0_1_59)">
<path d="M246.962 61.9272C246.962 65.6576 243.877 68.6792 240.062 68.6792H14.2552C10.4416 68.6792 7.34616 65.6576 7.34616 61.9272V8.08164C7.34616 4.35302 10.4416 1.32076 14.2552 1.32076H240.06C243.877 1.32076 246.96 4.35302 246.96 8.08164L246.962 61.9272Z" fill="black"/>
<path d="M239.333 1.40219C243.488 1.40219 246.87 4.69875 246.87 8.75V61.25C246.87 65.3013 243.488 68.5978 239.333 68.5978H14.9744C10.8192 68.5978 7.43814 65.3013 7.43814 61.25V8.75C7.43814 4.69875 10.8192 1.40219 14.9744 1.40219H239.333ZM239.333 3.69946e-06H14.9744C10.0407 3.69946e-06 6 3.93969 6 8.75V61.25C6 66.0603 10.0407 70 14.9744 70H239.333C244.267 70 248.308 66.0603 248.308 61.25V8.75C248.308 3.93969 244.267 3.69946e-06 239.333 3.69946e-06Z" fill="#A6A6A6"/>
<path d="M60.0759 34.622C60.0239 28.9817 64.8126 26.2377 65.0315 26.11C62.3195 22.2547 58.1159 21.728 56.6387 21.686C53.1082 21.3237 49.6836 23.7457 47.8851 23.7457C46.0508 23.7457 43.2813 21.721 40.2964 21.7805C36.4554 21.8382 32.8621 24.0065 30.8913 27.3735C26.8241 34.2387 29.8574 44.3275 33.7541 49.8767C35.7033 52.5945 37.981 55.629 40.9623 55.5222C43.879 55.405 44.9685 53.7092 48.4882 53.7092C51.9757 53.7092 52.9987 55.5222 56.0392 55.454C59.1695 55.405 61.1403 52.724 63.0213 49.9817C65.2739 46.8667 66.1785 43.799 66.2144 43.6415C66.1408 43.617 60.1351 41.3822 60.0759 34.622Z" fill="white"/>
<path d="M54.3323 18.0355C55.901 16.1227 56.9744 13.5205 56.6764 10.8797C54.4059 10.9777 51.5664 12.411 49.9313 14.2817C48.4846 15.9302 47.1923 18.6322 47.5262 21.1732C50.0767 21.3587 52.6954 19.9185 54.3323 18.0355Z" fill="white"/>
<path d="M102.286 55.132H98.2097L95.9769 48.2912H88.2159L86.089 55.132H82.1205L89.8097 31.843H94.559L102.286 55.132ZM95.3038 45.4212L93.2846 39.34C93.071 38.7187 92.6708 37.2557 92.0802 34.9527H92.0084C91.7733 35.9432 91.3946 37.4062 90.8741 39.34L88.8908 45.4212H95.3038V45.4212Z" fill="white"/>
<path d="M122.06 46.529C122.06 49.385 121.268 51.6425 119.685 53.2998C118.267 54.775 116.507 55.5118 114.405 55.5118C112.136 55.5118 110.506 54.7173 109.514 53.1283H109.442V61.9745H105.615V43.8672C105.615 42.0717 105.567 40.229 105.474 38.339H108.839L109.053 41.0008H109.124C110.4 38.9953 112.337 37.9943 114.936 37.9943C116.968 37.9943 118.664 38.7765 120.021 40.3427C121.382 41.9107 122.06 43.9722 122.06 46.529ZM118.162 46.6655C118.162 45.031 117.785 43.6835 117.027 42.623C116.2 41.517 115.089 40.964 113.696 40.964C112.752 40.964 111.894 41.272 111.127 41.8793C110.359 42.4918 109.857 43.2915 109.622 44.282C109.503 44.744 109.444 45.122 109.444 45.4195V48.2195C109.444 49.441 109.828 50.4718 110.596 51.3135C111.364 52.1553 112.362 52.5753 113.59 52.5753C115.031 52.5753 116.153 52.0328 116.955 50.9513C117.759 49.868 118.162 48.44 118.162 46.6655Z" fill="white"/>
<path d="M141.87 46.529C141.87 49.385 141.078 51.6425 139.494 53.2998C138.077 54.775 136.317 55.5118 134.215 55.5118C131.946 55.5118 130.316 54.7173 129.326 53.1283H129.254V61.9745H125.427V43.8672C125.427 42.0717 125.379 40.229 125.285 38.339H128.651L128.864 41.0008H128.936C130.211 38.9953 132.147 37.9943 134.748 37.9943C136.778 37.9943 138.474 38.7765 139.835 40.3427C141.19 41.9107 141.87 43.9722 141.87 46.529ZM137.972 46.6655C137.972 45.031 137.593 43.6835 136.835 42.623C136.008 41.517 134.901 40.964 133.506 40.964C132.56 40.964 131.704 41.272 130.936 41.8793C130.167 42.4918 129.667 43.2915 129.432 44.282C129.315 44.744 129.254 45.122 129.254 45.4195V48.2195C129.254 49.441 129.638 50.4718 130.403 51.3135C131.171 52.1535 132.169 52.5753 133.4 52.5753C134.841 52.5753 135.963 52.0328 136.765 50.9513C137.569 49.868 137.972 48.44 137.972 46.6655Z" fill="white"/>
<path d="M164.019 48.601C164.019 50.582 163.313 52.1937 161.897 53.438C160.341 54.7977 158.175 55.4767 155.391 55.4767C152.821 55.4767 150.76 54.9937 149.2 54.026L150.087 50.9162C151.767 51.9067 153.61 52.4037 155.619 52.4037C157.06 52.4037 158.182 52.0852 158.988 51.4517C159.79 50.8182 160.19 49.9677 160.19 48.9072C160.19 47.9622 159.86 47.166 159.198 46.5202C158.539 45.8745 157.439 45.2742 155.902 44.7195C151.72 43.1987 149.631 40.971 149.631 38.0415C149.631 36.127 150.363 34.5572 151.83 33.3357C153.291 32.1125 155.24 31.5017 157.677 31.5017C159.851 31.5017 161.657 31.871 163.098 32.6077L162.141 35.6492C160.795 34.9352 159.273 34.5782 157.57 34.5782C156.224 34.5782 155.172 34.902 154.418 35.546C153.781 36.1217 153.461 36.8235 153.461 37.6547C153.461 38.5752 153.826 39.3365 154.558 39.935C155.195 40.488 156.353 41.0865 158.033 41.7322C160.088 42.539 161.597 43.4822 162.568 44.5637C163.536 45.6417 164.019 46.991 164.019 48.601Z" fill="white"/>
<path d="M176.671 41.139H172.453V49.2922C172.453 51.366 173.196 52.402 174.686 52.402C175.369 52.402 175.937 52.3442 176.385 52.2287L176.491 55.062C175.737 55.3367 174.745 55.475 173.515 55.475C172.004 55.475 170.823 55.0252 169.971 54.1275C169.122 53.228 168.694 51.7195 168.694 49.6002V41.1355H166.182V38.3355H168.694V35.2607L172.453 34.1547V38.3355H176.671V41.139Z" fill="white"/>
<path d="M195.702 46.5972C195.702 49.1785 194.944 51.2977 193.433 52.955C191.848 54.6612 189.745 55.5117 187.122 55.5117C184.595 55.5117 182.583 54.6945 181.083 53.06C179.582 51.4255 178.832 49.3622 178.832 46.8755C178.832 44.2732 179.604 42.1417 181.153 40.4845C182.698 38.8255 184.784 37.996 187.406 37.996C189.933 37.996 191.967 38.8132 193.501 40.4495C194.969 42.0367 195.702 44.086 195.702 46.5972ZM191.731 46.718C191.731 45.1692 191.392 43.841 190.705 42.7332C189.903 41.3927 188.756 40.7242 187.269 40.7242C185.731 40.7242 184.563 41.3945 183.76 42.7332C183.073 43.8427 182.734 45.192 182.734 46.788C182.734 48.3367 183.073 49.665 183.76 50.771C184.588 52.1115 185.744 52.78 187.235 52.78C188.696 52.78 189.843 52.0975 190.671 50.736C191.376 49.6072 191.731 48.265 191.731 46.718Z" fill="white"/>
<path d="M208.14 41.6203C207.762 41.552 207.358 41.517 206.934 41.517C205.588 41.517 204.547 42.0123 203.815 43.0045C203.177 43.8795 202.858 44.9855 202.858 46.3208V55.132H199.033L199.069 43.6275C199.069 41.692 199.02 39.9298 198.925 38.3408H202.258L202.398 41.5538H202.504C202.908 40.4495 203.545 39.5605 204.418 38.8938C205.27 38.2935 206.191 37.9943 207.184 37.9943C207.537 37.9943 207.857 38.0188 208.14 38.0625V41.6203Z" fill="white"/>
<path d="M225.254 45.941C225.254 46.6095 225.209 47.173 225.114 47.6332H213.634C213.679 49.2922 214.234 50.561 215.3 51.436C216.267 52.2182 217.518 52.6102 219.055 52.6102C220.755 52.6102 222.305 52.346 223.7 51.8157L224.299 54.4057C222.67 55.0987 220.746 55.4435 218.525 55.4435C215.855 55.4435 213.758 54.677 212.233 53.1457C210.711 51.6145 209.948 49.5582 209.948 46.9787C209.948 44.4465 210.657 42.3377 212.076 40.656C213.563 38.8605 215.571 37.9627 218.098 37.9627C220.58 37.9627 222.46 38.8605 223.736 40.656C224.746 42.0822 225.254 43.8462 225.254 45.941ZM221.605 44.9732C221.63 43.8672 221.381 42.9117 220.862 42.105C220.2 41.0672 219.182 40.5492 217.813 40.5492C216.562 40.5492 215.544 41.055 214.767 42.07C214.13 42.8767 213.751 43.8445 213.634 44.9715H221.605V44.9732Z" fill="white"/>
<path d="M94.0385 17.5158C94.0385 19.5755 93.4049 21.126 92.1395 22.1673C90.9674 23.128 89.3018 23.6093 87.1444 23.6093C86.0746 23.6093 85.1592 23.5638 84.3928 23.4728V12.2185C85.3926 12.061 86.4695 11.9805 87.6326 11.9805C89.6877 11.9805 91.2367 12.4163 92.2813 13.2878C93.4515 14.273 94.0385 15.6818 94.0385 17.5158ZM92.0551 17.5665C92.0551 16.2313 91.6926 15.2075 90.9674 14.4935C90.2423 13.7813 89.1833 13.4243 87.7887 13.4243C87.1964 13.4243 86.6921 13.4628 86.2739 13.5433V22.099C86.5054 22.134 86.929 22.1498 87.5446 22.1498C88.9841 22.1498 90.0951 21.7595 90.8777 20.979C91.6603 20.1985 92.0551 19.061 92.0551 17.5665Z" fill="white"/>
<path d="M104.555 19.3148C104.555 20.5835 104.183 21.623 103.44 22.4385C102.661 23.2768 101.629 23.695 100.34 23.695C99.0982 23.695 98.1092 23.2943 97.3715 22.4893C96.6356 21.686 96.2677 20.6728 96.2677 19.4513C96.2677 18.1738 96.6464 17.1255 97.4074 16.3118C98.1685 15.498 99.1915 15.0903 100.48 15.0903C101.722 15.0903 102.72 15.491 103.476 16.2943C104.194 17.0748 104.555 18.0828 104.555 19.3148ZM102.604 19.3743C102.604 18.613 102.435 17.9603 102.099 17.416C101.704 16.758 101.143 16.429 100.412 16.429C99.6564 16.429 99.082 16.758 98.6872 17.416C98.3497 17.9603 98.1828 18.6235 98.1828 19.4075C98.1828 20.1688 98.3515 20.8215 98.6872 21.3658C99.0946 22.0238 99.6618 22.3528 100.394 22.3528C101.112 22.3528 101.676 22.0185 102.081 21.3483C102.429 20.7935 102.604 20.1355 102.604 19.3743Z" fill="white"/>
<path d="M118.655 15.2583L116.008 23.5078H114.285L113.188 19.9255C112.91 19.0313 112.684 18.1423 112.508 17.2603H112.474C112.31 18.1668 112.084 19.054 111.793 19.9255L110.628 23.5078H108.886L106.396 15.2583H108.329L109.286 19.18C109.517 20.1075 109.708 20.9913 109.86 21.8278H109.894C110.034 21.1383 110.266 20.2598 110.593 19.1975L111.793 15.26H113.326L114.477 19.1135C114.755 20.0533 114.981 20.958 115.155 21.8295H115.207C115.335 20.9808 115.527 20.076 115.782 19.1135L116.808 15.26H118.655V15.2583Z" fill="white"/>
<path d="M128.407 23.5078H126.526V18.7828C126.526 17.3268 125.958 16.5988 124.821 16.5988C124.262 16.5988 123.812 16.7983 123.462 17.199C123.115 17.5998 122.939 18.0723 122.939 18.613V23.506H121.058V17.6155C121.058 16.891 121.035 16.1053 120.99 15.2548H122.643L122.731 16.5445H122.783C123.002 16.1438 123.329 15.813 123.758 15.5488C124.268 15.2408 124.838 15.085 125.463 15.085C126.253 15.085 126.91 15.3335 127.432 15.8323C128.082 16.443 128.407 17.3548 128.407 18.5658V23.5078V23.5078Z" fill="white"/>
<path d="M133.594 23.5078H131.715V11.473H133.594V23.5078Z" fill="white"/>
<path d="M144.668 19.3148C144.668 20.5835 144.297 21.623 143.554 22.4385C142.775 23.2768 141.741 23.695 140.454 23.695C139.21 23.695 138.221 23.2943 137.485 22.4893C136.749 21.686 136.381 20.6728 136.381 19.4513C136.381 18.1738 136.76 17.1255 137.521 16.3118C138.282 15.498 139.305 15.0903 140.592 15.0903C141.836 15.0903 142.832 15.491 143.589 16.2943C144.307 17.0748 144.668 18.0828 144.668 19.3148ZM142.715 19.3743C142.715 18.613 142.547 17.9603 142.211 17.416C141.818 16.758 141.254 16.429 140.526 16.429C139.768 16.429 139.194 16.758 138.801 17.416C138.463 17.9603 138.296 18.6235 138.296 19.4075C138.296 20.1688 138.465 20.8215 138.801 21.3658C139.208 22.0238 139.775 22.3528 140.508 22.3528C141.226 22.3528 141.787 22.0185 142.193 21.3483C142.543 20.7935 142.715 20.1355 142.715 19.3743Z" fill="white"/>
<path d="M153.772 23.5078H152.083L151.943 22.5575H151.891C151.313 23.3153 150.489 23.695 149.419 23.695C148.621 23.695 147.974 23.4448 147.488 22.9478C147.046 22.4963 146.826 21.9345 146.826 21.2678C146.826 20.2598 147.256 19.4915 148.123 18.9595C148.988 18.4275 150.205 18.1668 151.772 18.179V18.025C151.772 16.9383 151.187 16.3958 150.015 16.3958C149.181 16.3958 148.445 16.6005 147.809 17.0065L147.427 15.8025C148.213 15.3283 149.184 15.0903 150.329 15.0903C152.541 15.0903 153.65 16.2278 153.65 18.5028V21.5408C153.65 22.365 153.691 23.0213 153.772 23.5078ZM151.819 20.6728V19.4005C149.744 19.3655 148.707 19.9203 148.707 21.063C148.707 21.4935 148.825 21.8155 149.067 22.0308C149.31 22.246 149.618 22.3528 149.986 22.3528C150.399 22.3528 150.785 22.225 151.137 21.9713C151.491 21.7158 151.708 21.392 151.788 20.9948C151.808 20.9055 151.819 20.797 151.819 20.6728Z" fill="white"/>
<path d="M164.46 23.5078H162.791L162.703 22.183H162.651C162.118 23.191 161.21 23.695 159.934 23.695C158.914 23.695 158.065 23.3048 157.392 22.5243C156.719 21.7438 156.383 20.7305 156.383 19.4863C156.383 18.151 156.748 17.0695 157.48 16.2435C158.189 15.4735 159.058 15.0885 160.092 15.0885C161.228 15.0885 162.023 15.4613 162.475 16.2085H162.511V11.473H164.394V21.2853C164.394 22.0885 164.415 22.8288 164.46 23.5078ZM162.511 20.0288V18.6533C162.511 18.4153 162.493 18.2228 162.459 18.0758C162.353 17.6348 162.125 17.2638 161.779 16.9645C161.429 16.6653 161.007 16.5148 160.521 16.5148C159.819 16.5148 159.269 16.786 158.866 17.3303C158.465 17.8745 158.263 18.5693 158.263 19.418C158.263 20.2335 158.455 20.895 158.841 21.4043C159.248 21.9468 159.797 22.218 160.485 22.218C161.102 22.218 161.596 21.9923 161.971 21.539C162.333 21.1208 162.511 20.6168 162.511 20.0288Z" fill="white"/>
<path d="M180.548 19.3148C180.548 20.5835 180.176 21.623 179.433 22.4385C178.654 23.2768 177.624 23.695 176.333 23.695C175.093 23.695 174.104 23.2943 173.365 22.4893C172.629 21.686 172.261 20.6728 172.261 19.4513C172.261 18.1738 172.64 17.1255 173.401 16.3118C174.162 15.498 175.185 15.0903 176.475 15.0903C177.715 15.0903 178.715 15.491 179.469 16.2943C180.187 17.0748 180.548 18.0828 180.548 19.3148ZM178.598 19.3743C178.598 18.613 178.43 17.9603 178.094 17.416C177.697 16.758 177.137 16.429 176.405 16.429C175.651 16.429 175.077 16.758 174.68 17.416C174.343 17.9603 174.176 18.6235 174.176 19.4075C174.176 20.1688 174.345 20.8215 174.68 21.3658C175.088 22.0238 175.655 22.3528 176.387 22.3528C177.105 22.3528 177.671 22.0185 178.076 21.3483C178.423 20.7935 178.598 20.1355 178.598 19.3743Z" fill="white"/>
<path d="M190.662 23.5078H188.783V18.7828C188.783 17.3268 188.215 16.5988 187.076 16.5988C186.517 16.5988 186.067 16.7983 185.719 17.199C185.371 17.5998 185.196 18.0723 185.196 18.613V23.506H183.314V17.6155C183.314 16.891 183.292 16.1053 183.247 15.2548H184.898L184.986 16.5445H185.038C185.259 16.1438 185.586 15.813 186.013 15.5488C186.525 15.2408 187.094 15.085 187.72 15.085C188.508 15.085 189.165 15.3335 189.687 15.8323C190.339 16.443 190.662 17.3548 190.662 18.5658V23.5078V23.5078Z" fill="white"/>
<path d="M203.321 16.632H201.25V20.6395C201.25 21.658 201.618 22.1673 202.346 22.1673C202.684 22.1673 202.964 22.1393 203.185 22.0815L203.233 23.4728C202.862 23.6093 202.373 23.6775 201.772 23.6775C201.029 23.6775 200.451 23.457 200.033 23.016C199.613 22.575 199.405 21.833 199.405 20.7918V16.632H198.168V15.2583H199.405V13.7463L201.248 13.2038V15.2565H203.319V16.632H203.321Z" fill="white"/>
<path d="M213.279 23.5078H211.396V18.8178C211.396 17.339 210.829 16.5988 209.693 16.5988C208.821 16.5988 208.225 17.0275 207.898 17.885C207.842 18.0653 207.81 18.2858 207.81 18.5448V23.506H205.931V11.473H207.81V16.4448H207.846C208.438 15.54 209.287 15.0885 210.387 15.0885C211.166 15.0885 211.811 15.337 212.322 15.8358C212.96 16.457 213.279 17.381 213.279 18.6025V23.5078V23.5078Z" fill="white"/>
<path d="M223.551 18.9928C223.551 19.3218 223.526 19.5983 223.481 19.824H217.84C217.865 20.6395 218.134 21.2608 218.656 21.6913C219.134 22.0763 219.749 22.2688 220.503 22.2688C221.338 22.2688 222.099 22.1393 222.785 21.8785L223.079 23.1525C222.277 23.492 221.333 23.6618 220.239 23.6618C218.929 23.6618 217.897 23.2855 217.15 22.533C216.4 21.7805 216.029 20.7708 216.029 19.5038C216.029 18.2595 216.375 17.2235 217.073 16.3975C217.802 15.5155 218.787 15.0745 220.031 15.0745C221.248 15.0745 222.173 15.5155 222.797 16.3975C223.302 17.0975 223.551 17.9638 223.551 18.9928ZM221.756 18.5185C221.77 17.9743 221.647 17.5053 221.392 17.1098C221.065 16.6005 220.568 16.345 219.895 16.345C219.281 16.345 218.78 16.5935 218.398 17.0923C218.086 17.4895 217.901 17.9638 217.84 18.5185H221.756Z" fill="white"/>
<path d="M501.513 70H277.462C272.535 70 268.5 66.0603 268.5 61.25V8.75001C268.5 3.9397 272.535 1.31478e-05 277.462 1.31478e-05H501.513C506.439 1.31478e-05 510.475 3.9397 510.475 8.75001V61.25C510.475 66.0603 506.439 70 501.513 70Z" fill="black"/>
<path d="M501.513 1.4022C505.662 1.4022 509.038 4.69876 509.038 8.75001V61.25C509.038 65.3013 505.662 68.5978 501.513 68.5978H277.462C273.313 68.5978 269.936 65.3013 269.936 61.25V8.75001C269.936 4.69876 273.313 1.4022 277.462 1.4022H501.513ZM501.513 1.31478e-05H277.462C272.535 1.31478e-05 268.5 3.9397 268.5 8.75001V61.25C268.5 66.0603 272.535 70 277.462 70H501.513C506.439 70 510.475 66.0603 510.475 61.25V8.75001C510.475 3.9397 506.439 1.31478e-05 501.513 1.31478e-05Z" fill="#A6A6A6"/>
<path d="M353.491 17.9266C353.491 19.3878 353.043 20.5581 352.16 21.4309C351.146 22.4656 349.824 22.9862 348.204 22.9862C346.656 22.9862 345.334 22.4569 344.249 21.4134C343.163 20.3547 342.62 19.0553 342.62 17.5C342.62 15.9447 343.163 14.6453 344.249 13.5953C345.334 12.5431 346.656 12.0137 348.204 12.0137C348.974 12.0137 349.709 12.1691 350.411 12.4578C351.11 12.7487 351.679 13.1425 352.091 13.6281L351.154 14.5512C350.435 13.7222 349.456 13.3131 348.204 13.3131C347.075 13.3131 346.095 13.6981 345.264 14.4747C344.442 15.2534 344.03 16.2619 344.03 17.5C344.03 18.7381 344.442 19.7553 345.264 20.5341C346.095 21.3019 347.075 21.6956 348.204 21.6956C349.402 21.6956 350.411 21.3019 351.206 20.5253C351.73 20.0112 352.028 19.3025 352.107 18.3969H348.204V17.1325H353.411C353.473 17.4059 353.491 17.6706 353.491 17.9266V17.9266Z" fill="white" stroke="white" stroke-width="0.16" stroke-miterlimit="10"/>
<path d="M361.752 13.5428H356.861V16.8678H361.27V18.1322H356.861V21.4572H361.752V22.7456H355.476V12.2544H361.752V13.5428Z" fill="white" stroke="white" stroke-width="0.16" stroke-miterlimit="10"/>
<path d="M367.582 22.7456H366.197V13.5428H363.197V12.2544H370.584V13.5428H367.582V22.7456V22.7456Z" fill="white" stroke="white" stroke-width="0.16" stroke-miterlimit="10"/>
<path d="M375.93 22.7456V12.2544H377.312V22.7456H375.93Z" fill="white" stroke="white" stroke-width="0.16" stroke-miterlimit="10"/>
<path d="M383.44 22.7456H382.067V13.5428H379.055V12.2544H386.451V13.5428H383.44V22.7456Z" fill="white" stroke="white" stroke-width="0.16" stroke-miterlimit="10"/>
<path d="M400.437 21.3959C399.377 22.4569 398.064 22.9862 396.498 22.9862C394.923 22.9862 393.61 22.4569 392.55 21.3959C391.493 20.3372 390.966 19.0378 390.966 17.5C390.966 15.9622 391.493 14.6628 392.55 13.6041C393.61 12.5431 394.923 12.0137 396.498 12.0137C398.055 12.0137 399.368 12.5431 400.428 13.6128C401.494 14.6803 402.021 15.9709 402.021 17.5C402.021 19.0378 401.494 20.3372 400.437 21.3959ZM393.574 20.5166C394.372 21.3019 395.342 21.6956 396.498 21.6956C397.645 21.6956 398.624 21.3019 399.413 20.5166C400.208 19.7312 400.611 18.7228 400.611 17.5C400.611 16.2772 400.208 15.2687 399.413 14.4834C398.624 13.6981 397.645 13.3044 396.498 13.3044C395.342 13.3044 394.372 13.6981 393.574 14.4834C392.779 15.2687 392.375 16.2772 392.375 17.5C392.375 18.7228 392.779 19.7312 393.574 20.5166V20.5166Z" fill="white" stroke="white" stroke-width="0.16" stroke-miterlimit="10"/>
<path d="M403.963 22.7456V12.2544H405.644L410.868 20.4137H410.929L410.868 18.3969V12.2544H412.251V22.7456H410.808L405.337 14.1837H405.276L405.337 16.2094V22.7456H403.963V22.7456Z" fill="white" stroke="white" stroke-width="0.16" stroke-miterlimit="10"/>
<path d="M390.625 38.0669C386.416 38.0669 382.976 41.195 382.976 45.511C382.976 49.7919 386.416 52.9528 390.625 52.9528C394.844 52.9528 398.283 49.7919 398.283 45.511C398.283 41.195 394.844 38.0669 390.625 38.0669ZM390.625 50.0216C388.315 50.0216 386.328 48.16 386.328 45.511C386.328 42.8269 388.315 40.9982 390.625 40.9982C392.935 40.9982 394.932 42.8269 394.932 45.511C394.932 48.16 392.935 50.0216 390.625 50.0216V50.0216ZM373.936 38.0669C369.717 38.0669 366.287 41.195 366.287 45.511C366.287 49.7919 369.717 52.9528 373.936 52.9528C378.153 52.9528 381.585 49.7919 381.585 45.511C381.585 41.195 378.153 38.0669 373.936 38.0669ZM373.936 50.0216C371.624 50.0216 369.63 48.16 369.63 45.511C369.63 42.8269 371.624 40.9982 373.936 40.9982C376.246 40.9982 378.233 42.8269 378.233 45.511C378.233 48.16 376.246 50.0216 373.936 50.0216ZM354.076 40.3485V43.5116H361.813C361.586 45.2791 360.981 46.5785 360.054 47.4841C358.925 48.5778 357.166 49.7919 354.076 49.7919C349.315 49.7919 345.587 46.0403 345.587 41.3919C345.587 36.7435 349.315 32.9919 354.076 32.9919C356.65 32.9919 358.523 33.9741 359.906 35.2472L362.189 33.0182C360.255 31.2157 357.683 29.831 354.076 29.831C347.547 29.831 342.06 35.0175 342.06 41.3919C342.06 47.7663 347.547 52.9528 354.076 52.9528C357.605 52.9528 360.255 51.8241 362.339 49.7066C364.474 47.6219 365.14 44.6907 365.14 42.3238C365.14 41.5888 365.077 40.9128 364.965 40.3485H354.076ZM435.285 42.8007C434.656 41.136 432.713 38.0669 428.757 38.0669C424.836 38.0669 421.571 41.0835 421.571 45.511C421.571 49.6803 424.802 52.9528 429.133 52.9528C432.635 52.9528 434.656 50.8682 435.487 49.6541L432.888 47.9632C432.021 49.2013 430.84 50.0216 429.133 50.0216C427.437 50.0216 426.22 49.2625 425.441 47.7663L435.637 43.6472L435.285 42.8007V42.8007ZM424.889 45.2791C424.802 42.4091 427.173 40.9391 428.871 40.9391C430.202 40.9391 431.331 41.5888 431.707 42.5185L424.889 45.2791V45.2791ZM416.602 52.5H419.954V30.625H416.602V52.5ZM411.113 39.725H411.001C410.248 38.8544 408.812 38.0669 406.992 38.0669C403.175 38.0669 399.684 41.3394 399.684 45.535C399.684 49.7066 403.175 52.9528 406.992 52.9528C408.812 52.9528 410.248 52.1588 411.001 51.2619H411.113V52.3294C411.113 55.1753 409.555 56.7044 407.044 56.7044C404.996 56.7044 403.726 55.2607 403.201 54.0466L400.287 55.2344C401.127 57.2075 403.352 59.6357 407.044 59.6357C410.974 59.6357 414.29 57.3782 414.29 51.8853V38.5197H411.113V39.725V39.725ZM407.279 50.0216C404.969 50.0216 403.036 48.1338 403.036 45.535C403.036 42.9122 404.969 40.9982 407.279 40.9982C409.555 40.9982 411.35 42.9122 411.35 45.535C411.35 48.1338 409.555 50.0216 407.279 50.0216V50.0216ZM450.978 30.625H442.961V52.5H446.304V44.2116H450.978C454.69 44.2116 458.331 41.5888 458.331 37.4172C458.331 33.2478 454.681 30.625 450.978 30.625V30.625ZM451.065 41.1688H446.304V33.6678H451.065C453.561 33.6678 454.986 35.6913 454.986 37.4172C454.986 39.1103 453.561 41.1688 451.065 41.1688ZM471.729 38.0253C469.314 38.0253 466.803 39.0666 465.77 41.3744L468.736 42.5885C469.375 41.3744 470.549 40.9807 471.79 40.9807C473.524 40.9807 475.283 41.9978 475.31 43.7938V44.0235C474.705 43.6822 473.41 43.1769 471.817 43.1769C468.622 43.1769 465.366 44.8941 465.366 48.0988C465.366 51.03 467.983 52.9178 470.925 52.9178C473.175 52.9178 474.416 51.9269 475.196 50.7741H475.31V52.465H478.538V44.0738C478.538 40.1953 475.572 38.0253 471.729 38.0253ZM471.326 50.0128C470.233 50.0128 468.709 49.4835 468.709 48.16C468.709 46.4669 470.609 45.8172 472.254 45.8172C473.726 45.8172 474.416 46.1344 475.31 46.5522C475.048 48.5778 473.262 50.0128 471.326 50.0128V50.0128ZM490.301 38.5044L486.459 47.9872H486.344L482.372 38.5044H478.767L484.736 51.7563L481.33 59.1303H484.823L494.02 38.5044H490.301V38.5044ZM460.168 52.5H463.52V30.625H460.168V52.5Z" fill="white"/>
<path d="M287.204 13.1928C286.677 13.7309 286.373 14.5687 286.373 15.6537V54.355C286.373 55.44 286.677 56.2778 287.204 56.8159L287.334 56.934L309.546 35.2559V34.744L287.334 13.0659L287.204 13.1928Z" fill="url(#paint0_linear_1_59)"/>
<path d="M316.942 42.4856L309.546 35.2559V34.744L316.951 27.5143L317.117 27.6084L325.886 32.48C328.389 33.8625 328.389 36.1375 325.886 37.5287L317.117 42.3915L316.942 42.4856V42.4856Z" fill="url(#paint1_linear_1_59)"/>
<path d="M317.117 42.3916L309.546 35L287.204 56.8159C288.035 57.6691 289.39 57.7719 290.932 56.9187L317.117 42.3916" fill="url(#paint2_linear_1_59)"/>
<path d="M317.117 27.6084L290.932 13.0813C289.39 12.2369 288.035 12.3397 287.204 13.1928L309.546 35L317.117 27.6084Z" fill="url(#paint3_linear_1_59)"/>
</g>
<defs>
<linearGradient id="paint0_linear_1_59" x1="307.574" y1="54.758" x2="278.213" y2="24.6858" gradientUnits="userSpaceOnUse">
<stop stop-color="#00A0FF"/>
<stop offset="0.0066" stop-color="#00A1FF"/>
<stop offset="0.2601" stop-color="#00BEFF"/>
<stop offset="0.5122" stop-color="#00D2FF"/>
<stop offset="0.7604" stop-color="#00DFFF"/>
<stop offset="1" stop-color="#00E3FF"/>
</linearGradient>
<linearGradient id="paint1_linear_1_59" x1="329.145" y1="34.9975" x2="285.774" y2="34.9975" gradientUnits="userSpaceOnUse">
<stop stop-color="#FFE000"/>
<stop offset="0.4087" stop-color="#FFBD00"/>
<stop offset="0.7754" stop-color="#FFA500"/>
<stop offset="1" stop-color="#FF9C00"/>
</linearGradient>
<linearGradient id="paint2_linear_1_59" x1="313" y1="30.9818" x2="273.184" y2="-9.79856" gradientUnits="userSpaceOnUse">
<stop stop-color="#FF3A44"/>
<stop offset="1" stop-color="#C31162"/>
</linearGradient>
<linearGradient id="paint3_linear_1_59" x1="281.58" y1="69.6917" x2="299.359" y2="51.4815" gradientUnits="userSpaceOnUse">
<stop stop-color="#32A071"/>
<stop offset="0.0685" stop-color="#2DA771"/>
<stop offset="0.4762" stop-color="#15CF74"/>
<stop offset="0.8009" stop-color="#06E775"/>
<stop offset="1" stop-color="#00F076"/>
</linearGradient>
<clipPath id="clip0_1_59">
<rect width="515" height="69" fill="white"/>
</clipPath>
</defs>
</svg>
